<svg xmlns="http://www.w3.org/2000/svg" viewBox="0 0 512 512">
  <defs>
    <linearGradient id="bg" x1="0" y1="0" x2="1" y2="1">
      <stop offset="0" stop-color="#102b35"/>
      <stop offset="1" stop-color="#030a0f"/>
    </linearGradient>
    <linearGradient id="gold" x1="0" y1="0" x2="0" y2="1">
      <stop offset="0" stop-color="#ffe27a"/>
      <stop offset="1" stop-color="#e9a620"/>
    </linearGradient>
  </defs>
  <rect width="512" height="512" rx="112" fill="url(#bg)"/>
  <rect x="22" y="22" width="468" height="468" rx="94" fill="none" stroke="#ffc840" stroke-width="12"/>
  <path d="M142 410V126M370 410V126" stroke="#87979c" stroke-width="14"/>
  <g stroke="#4f5e61" stroke-width="13" stroke-linecap="round">
    <path d="M112 146h288M112 202h288M112 258h288M112 314h288M112 370h288"/>
  </g>
  <rect x="91" y="92" width="330" height="292" rx="62" fill="#07131b" stroke="#ffc840" stroke-width="8"/>
  <path d="M146 312l60-154h46l60 154h-44l-12-34h-57l-12 34h-41zm66-72h31l-15-48-16 48z" fill="#fff1cf"/>
  <path d="M321 158h48c42 0 66 20 66 56 0 23-11 39-31 48l39 50h-49l-31-42h-1v42h-41V158zm41 36v42h8c15 0 23-7 23-21 0-14-8-21-23-21h-8z" fill="url(#gold)" transform="translate(-26 0)"/>
  <circle cx="164" cy="355" r="19" fill="#ffc840"/>
  <circle cx="348" cy="355" r="19" fill="#ffc840"/>
  <path d="M198 356h116" stroke="#fff1cf" stroke-width="10" stroke-linecap="round"/>
</svg>
